<svg width="15" height="15" viewBox="0 0 15 15" fill="none" xmlns="http://www.w3.org/2000/svg"><path d="M6.81818 0.681818V6.13636C6.81818 6.31719 6.74635 6.49062 6.61848 6.61848C6.49062 6.74635 6.31719 6.81818 6.13636 6.81818H0.681818C0.500989 6.81818 0.327566 6.74635 0.1997 6.61848C0.0718343 6.49062 0 6.31719 0 6.13636V0.681818C0 0.500989 0.0718343 0.327566 0.1997 0.1997C0.327566 0.0718343 0.500989 0 0.681818 0H6.13636C6.31719 0 6.49062 0.0718343 6.61848 0.1997C6.74635 0.327566 6.81818 0.500989 6.81818 0.681818ZM14.3182 0H8.86364C8.68281 0 8.50938 0.0718343 8.38152 0.1997C8.25365 0.327566 8.18182 0.500989 8.18182 0.681818V6.13636C8.18182 6.31719 8.25365 6.49062 8.38152 6.61848C8.50938 6.74635 8.68281 6.81818 8.86364 6.81818H14.3182C14.499 6.81818 14.6724 6.74635 14.8003 6.61848C14.9282 6.49062 15 6.31719 15 6.13636V0.681818C15 0.500989 14.9282 0.327566 14.8003 0.1997C14.6724 0.0718343 14.499 0 14.3182 0ZM6.13636 8.18182H0.681818C0.500989 8.18182 0.327566 8.25365 0.1997 8.38152C0.0718343 8.50938 0 8.68281 0 8.86364V14.3182C0 14.499 0.0718343 14.6724 0.1997 14.8003C0.327566 14.9282 0.500989 15 0.681818 15H6.13636C6.31719 15 6.49062 14.9282 6.61848 14.8003C6.74635 14.6724 6.81818 14.499 6.81818 14.3182V8.86364C6.81818 8.68281 6.74635 8.50938 6.61848 8.38152C6.49062 8.25365 6.31719 8.18182 6.13636 8.18182ZM14.3182 8.18182H8.86364C8.68281 8.18182 8.50938 8.25365 8.38152 8.38152C8.25365 8.50938 8.18182 8.68281 8.18182 8.86364V14.3182C8.18182 14.499 8.25365 14.6724 8.38152 14.8003C8.50938 14.9282 8.68281 15 8.86364 15H14.3182C14.499 15 14.6724 14.9282 14.8003 14.8003C14.9282 14.6724 15 14.499 15 14.3182V8.86364C15 8.68281 14.9282 8.50938 14.8003 8.38152C14.6724 8.25365 14.499 8.18182 14.3182 8.18182Z" fill="#D87D4A"/></svg>
