<svg width="16" height="15" xmlns="http://www.w3.org/2000/svg"><path d="M0.44728 0.419325C0.733759 0.150831 1.12226 0 1.52734 0C1.93242 0 2.32092 0.150831 2.6074 0.419325L8.00922 5.48354L13.411 0.419325C13.6992 0.15844 14.0851 0.0140841 14.4856 0.0173472C14.8862 0.0206103 15.2693 0.171232 15.5526 0.436771C15.8358 0.70231 15.9965 1.06152 15.9999 1.43703C16.0034 1.81255 15.8494 2.17432 15.5712 2.44444L10.1693 7.50865L15.5712 12.5729C15.8494 12.843 16.0034 13.2047 15.9999 13.5803C15.9965 13.9558 15.8358 14.315 15.5526 14.5805C15.2693 14.8461 14.8862 14.9967 14.4856 14.9999C14.0851 15.0032 13.6992 14.8589 13.411 14.598L8.00922 9.53376L2.6074 14.598C2.31928 14.8589 1.93339 15.0032 1.53284 14.9999C1.13229 14.9967 0.74913 14.8461 0.465889 14.5805C0.182647 14.315 0.0219843 13.9558 0.0185037 13.5803C0.015023 13.2047 0.169003 12.843 0.44728 12.5729L5.8491 7.50865L0.44728 2.44444C0.160887 2.17586 0 1.81164 0 1.43188C0 1.05212 0.160887 0.687899 0.44728 0.419325V0.419325Z" fill="white"/></svg>
